<?xml version="1.0" encoding="UTF-8" standalone="no"?><!DOCTYPE svg PUBLIC "-//W3C//DTD SVG 1.1//EN" "http://www.w3.org/Graphics/SVG/1.1/DTD/svg11.dtd"><svg width="100%" height="100%" viewBox="0 0 356 356" version="1.1" xmlns="http://www.w3.org/2000/svg" xmlns:xlink="http://www.w3.org/1999/xlink" xml:space="preserve" xmlns:serif="http://www.serif.com/" style="fill-rule:evenodd;clip-rule:evenodd;stroke-linecap:round;stroke-linejoin:round;stroke-miterlimit:1.5;"><g id="Final"><g><g id="Layer3"><path d="M89.568,249.802c0,0 -0.573,-33.377 36.556,-58.963c9.045,16.251 24.245,45.313 46.072,59.585c21.828,14.272 39.645,21.433 70.554,20.347c30.91,-1.086 53.342,-18.187 60.002,-24.688c6.66,-6.5 16.981,-17.889 19.086,-26.799c-1.643,14.994 0.261,53.371 -53.628,76.581c-53.889,23.21 -84.855,13.841 -113.343,4.21c-28.487,-9.631 -65.299,-50.273 -65.299,-50.273Z" style="fill:#220c6f;"/><path d="M51.117,179.709c0,0 -7.979,-43.94 7.225,-81.009c15.203,-37.07 33.713,-50.27 41.937,-52.725c8.223,-2.455 32.513,-9.404 55.367,3.06c-10.615,7.203 -43.39,24.798 -48.725,72.228c-18.882,14.025 -34.107,16.166 -55.804,58.446Z" style="fill:#220c6f;"/><path d="M95.638,46.738c0,0 44.669,-42.27 106.188,-24.38c61.519,17.89 73.092,72.976 75.602,80.917c2.511,7.941 31.343,86.785 -8.433,155.767c-2.018,3.499 -5.849,8.356 -5.849,8.356c0,0 -38.825,8.373 -69.435,-5.667c8.223,-18.579 20.466,-58.112 20.071,-82.022c-0.396,-23.909 -5.126,-64.428 -15.726,-85.077c-10.599,-20.65 -34.491,-53.909 -70.644,-52.811c-19.036,-1.765 -31.774,4.917 -31.774,4.917Z" style="fill:#3131d4;"/><path d="M120.186,320.294c0,0 20.933,14.591 28.412,15.165c7.479,0.574 54.799,-0.073 85.037,-27.933c-21.523,1.636 -43.236,5.347 -69.802,-5.024c-14.406,9.439 -30.26,18.666 -43.647,17.792" style="fill:#3131d4;"/><path d="M146.51,335.459c0,0 -60.787,-21.747 -57.416,-87.043c16.226,-70.776 95.274,-90.071 99.631,-91.412c12.006,-3.193 24.512,-2.716 24.512,-2.716c0,0 -4.816,-40.923 -15.561,-59.593c-19.558,0.73 -68.078,7.435 -108.582,38.919c-40.503,31.484 -50.445,78.786 -49.999,96.864c0.447,18.078 2.938,46.185 30.144,69.902c27.206,23.717 35.977,31.299 77.271,35.079Z" style="fill:#6b43a6;"/><path d="M283.925,123.039c0,0 8.937,37.853 5.945,63.571c8.31,10.195 29.608,23.896 6.864,62.809c13.725,-9.964 26.065,-21.475 25.05,-39.859c-2.993,-23.084 -6.194,-42.861 -19.965,-68.557c-12.179,-13.956 -17.894,-17.964 -17.894,-17.964Z" style="fill:#6b43a6;"/></g><g><path d="M51.271,180.801c-6.82,-42.016 1.703,-90.692 32.031,-122.373c22.373,-23.37 59.18,-20.095 84.017,-2.506c13.395,9.485 23.228,23.221 30.028,37.993c24.043,52.229 21.692,117.28 -4.791,168.205c-16.149,31.053 -43.983,64.099 -82.836,57.268c-6.873,-1.208 -17.666,-4.69 -23.765,-8.46c-6.841,-4.23 -13.656,-8.633 -19.673,-13.97c-41.601,-36.9 -30.718,-103.854 0.858,-143.219c13.327,-16.613 32.802,-28.441 51.278,-38.116c59.422,-31.114 153.989,-31.697 188.776,36.048c18.582,36.186 22.978,92.37 -7.691,123.913c-14.036,14.436 -33.622,23.063 -52.631,28.515c-14.254,4.089 -30.974,7.095 -45.9,6.288c-71.678,-3.878 -128.871,-64.209 -149.701,-129.586" style="fill:none;stroke:#000;stroke-width:5.5px;"/><path d="M73.204,70.218c8.168,-12.934 26.055,-35.676 69.345,-48.493c81.788,-21.58 122.579,48.493 122.579,48.493c22.845,52.529 35.084,115.242 12.48,170.031c-5.678,13.762 -13.729,26.62 -21.788,39.054c-7.917,12.215 -15.66,25.049 -27.979,33.391c-32.726,22.16 -79.127,29.67 -116.495,15.682c-20.25,-7.58 -37.275,-21.248 -51.433,-37.35" style="fill:none;stroke:#000;stroke-width:5.5px;"/><path d="M154.824,49.842c-7.736,5.079 -20.854,15.13 -26.992,22.13c-6.052,6.901 -11.306,14.992 -14.79,23.509c-15.456,37.784 0.967,75.822 20.308,108.813c13.394,22.847 31.444,44.462 55.67,56.275c45.127,22.005 111.071,8.359 132.54,-40.431" style="fill:none;stroke:#000;stroke-width:5.5px;"/><path d="M145,333.732c-15.655,-5.198 -29.496,-17.285 -29.496,-17.285c0,0 -84.256,-79.171 45.389,-150.316c90.409,-38.474 139.635,28.09 143.995,43.587c7.75,26.132 -14.278,45.703 -14.278,45.703" style="fill:none;stroke:#000;stroke-width:5.5px;"/></g><g><path d="M95.638,46.738c0,0 44.669,-42.27 106.188,-24.38c61.519,17.89 73.092,72.976 75.602,80.917c2.511,7.941 31.343,86.785 -8.433,155.767c-2.018,3.499 -5.849,8.356 -5.849,8.356c0,0 -38.825,8.373 -69.435,-5.667c8.223,-18.579 20.466,-58.112 20.071,-82.022c-0.396,-23.909 -5.126,-64.428 -15.726,-85.077c-10.599,-20.65 -34.491,-53.909 -70.644,-52.811c-19.036,-1.765 -31.774,4.917 -31.774,4.917Z" style="fill:#3131d4;"/><path d="M95.912,48.716c22,-12.12 50.816,-7.376 71.407,7.206c13.395,9.485 23.228,23.221 30.028,37.993c24.043,52.229 21.692,117.28 -4.791,168.205c-14.608,28.091 -38.779,57.812 -72.019,58.171" style="fill:none;stroke:#000;stroke-width:5.5px;"/><path d="M95.131,45.582c10.875,-8.789 26.053,-17.532 47.418,-23.857c81.788,-21.58 122.579,48.493 122.579,48.493c22.845,52.529 35.084,115.242 12.48,170.031c-5.678,13.762 -13.729,26.62 -21.788,39.054c-7.917,12.215 -15.66,25.049 -27.979,33.391c-22.92,15.52 -52.549,23.854 -81.084,22.65" style="fill:none;stroke:#000;stroke-width:5.5px;"/></g><g><path d="M89.568,249.802c0,0 -0.573,-33.377 36.556,-58.963c9.045,16.251 24.245,45.313 46.072,59.585c21.828,14.272 39.645,21.433 70.554,20.347c30.91,-1.086 53.342,-18.187 60.002,-24.688c6.66,-6.5 16.981,-17.889 19.086,-26.799c-1.643,14.994 0.261,53.371 -53.628,76.581c-53.889,23.21 -84.855,13.841 -113.343,4.21c-28.487,-9.631 -65.299,-50.273 -65.299,-50.273Z" style="fill:#220c6f;"/><path d="M321.425,223.132c-1.652,19.729 -8.357,38.501 -21.922,52.452c-14.036,14.436 -33.622,23.063 -52.631,28.515c-14.254,4.089 -30.974,7.095 -45.9,6.288c-71.678,-3.878 -128.871,-64.209 -149.701,-129.586c-6.82,-42.016 1.703,-90.692 32.031,-122.373c18.965,-19.81 48.301,-20.475 71.927,-9.504" style="fill:none;stroke:#000;stroke-width:5.5px;"/><path d="M154.824,49.842c-7.736,5.079 -20.854,15.13 -26.992,22.13c-6.052,6.901 -11.306,14.992 -14.79,23.509c-15.456,37.784 0.967,75.822 20.308,108.813c13.394,22.847 31.444,44.462 55.67,56.275c45.127,22.005 111.071,8.359 132.54,-40.431" style="fill:none;stroke:#000;stroke-width:5.5px;"/></g><g><path d="M146.51,335.459c0,0 -60.787,-21.747 -57.416,-87.043c16.226,-70.776 95.274,-90.071 99.631,-91.412c12.006,-3.193 24.512,-2.716 24.512,-2.716c0,0 -4.816,-40.923 -15.561,-59.593c-19.558,0.73 -68.078,7.435 -108.582,38.919c-40.503,31.484 -50.445,78.786 -49.999,96.864c0.447,18.078 2.938,46.185 30.144,69.902c27.206,23.717 35.977,31.299 77.271,35.079Z" style="fill:#6b43a6;"/><path d="M213.992,74.407c14.148,12.089 42.767,68.056 26.976,133.43c7.96,-8.487 10.495,-18.732 10.495,-18.732c1.91,6.992 2.681,11.952 0.291,25.1c3.548,-0.894 35.351,-73.445 -3.486,-143.927c1.942,12.745 2.09,17.064 0.728,24.417c-3.665,-8.576 -10.977,-15.827 -18.005,-21.37c3.134,7.915 7.34,15.055 8.505,21.37c-5.602,-10.319 -25.504,-20.288 -25.504,-20.288Z" style="fill:#4040ff;"/><path d="M146.48,335.332c-12.112,-0.538 -24.022,-2.796 -35.134,-6.956c-20.25,-7.58 -37.275,-21.248 -51.433,-37.35l-2.225,-2.982c-31.232,-38.009 -19.723,-97.934 9.452,-134.305c13.327,-16.613 32.802,-28.441 51.278,-38.116c22.766,-11.92 50.69,-19.359 78.434,-20.192" style="fill:none;stroke:#000;stroke-width:5.5px;"/><path d="M168.876,97.978c0,0 7.244,-4.075 29.303,-2.46c5.606,10.73 15.817,42.403 15.657,58.499c-4.966,-0.499 -2.411,-3.012 -12.683,-0.26c0.069,-7.246 -10.032,-51.121 -32.277,-55.779Z" style="fill-opacity:0.231373;"/><path d="M145,333.732c-15.655,-5.198 -29.496,-17.285 -29.496,-17.285c0,0 -84.256,-79.171 45.389,-150.316c19.474,-8.287 37.037,-11.701 52.653,-11.802" style="fill:none;stroke:#000;stroke-width:5.5px;"/><path d="M95.912,48.716c22,-12.12 50.816,-7.376 71.407,7.206c13.395,9.485 23.228,23.221 30.028,37.993c24.043,52.229 21.692,117.28 -4.791,168.205" style="fill:none;stroke:#000;stroke-width:5.5px;"/></g></g><path d="M73.635,71.964c2.482,1.879 14.915,-38.668 63,-28.979c20.903,3.87 19.612,6.141 19.612,6.141c0,0 -14.7,7.437 -25.755,21.256c-10.018,-15.263 -56.857,1.582 -56.857,1.582Z" style="fill-opacity:0.403922;"/><path d="M137.928,278.496c0,0 89.557,60.323 159.675,-11.886c-8.176,3.593 -12.086,6.643 -12.086,6.643l8.687,-9.193c0,0 -99.982,67.348 -168.045,-20.749c13.621,24.302 19.749,30.02 19.749,30.02l-23.302,-6.699l15.322,11.864Z" style="fill:#5337b7;"/><path d="M137.928,209.591c-26.068,-3.053 -43.532,45.323 -38.786,51.003c-5.272,-5.084 -10.28,-9.912 -10.28,-9.912c0,0 -2.425,-33.174 37.867,-60.545c5.854,13.106 6.208,11.206 11.199,19.454Z" style="fill-opacity:0.403922;"/><path d="M146.742,312.882c0,0 9.695,-2.416 14.976,-10.563c12.765,3.671 36.282,13.782 71.451,5.044c-22.286,17.098 -36.317,20.549 -36.317,20.549c0,0 -36.327,1.477 -50.11,-15.03Z" style="fill-opacity:0.403922;"/><path d="M304.955,225.871c0,0 15.478,-7.799 15.97,-17.162c0.874,2.99 0.73,9.429 0.913,12.253c-2.077,4.129 -9.192,18.348 -24.235,26.764c5.031,-10.543 7.434,-13.778 7.352,-21.855Z" style="fill-opacity:0.231373;"/><path d="M83.302,301.204c0,0 -64.384,-51.752 -9.667,-133.007c-4.989,12.738 -6.742,23.247 -6.742,23.247c4.475,-7.742 14.11,-18.686 14.11,-18.686c-5.783,10.565 -7.324,15.204 -10.318,24.558c6.229,-6.602 9.64,-7.332 15.1,-11.26c-4.052,3.441 -46.523,48.315 -2.483,115.148Z" style="fill:#a774f2;"/><g><circle cx="177.863" cy="195.168" r="22.481" style="fill:#d44c23;"/><path d="M178.043,167.188l0.179,0.001l0.181,0.003l0.179,0.004l0.179,0.005l0.179,0.006l0.179,0.008l0.179,0.008l0.178,0.01l0.178,0.011l0.178,0.012l0.177,0.012l0.177,0.015l0.177,0.015l0.177,0.016l0.176,0.017l0.176,0.019l0.176,0.019l0.175,0.021l0.176,0.022l0.175,0.023l0.174,0.023l0.174,0.025l0.174,0.026l0.174,0.028l0.173,0.028l0.172,0.029l0.173,0.03l0.173,0.032l0.172,0.032l0.171,0.034l0.17,0.034l0.171,0.035l0.171,0.037l0.17,0.038l0.169,0.038l0.169,0.04l0.169,0.041l0.169,0.041l0.168,0.043l0.168,0.044l0.167,0.044l0.167,0.046l0.166,0.047l0.166,0.048l0.166,0.049l0.165,0.049l0.165,0.051l0.164,0.052l0.163,0.052l0.164,0.054l0.163,0.055l0.162,0.055l0.163,0.057l0.161,0.057l0.161,0.059l0.161,0.059l0.16,0.061l0.16,0.061l0.16,0.062l0.158,0.064l0.158,0.064l0.158,0.065l0.158,0.066l0.156,0.067l0.156,0.067l0.157,0.07l0.155,0.069l0.155,0.071l0.155,0.072l0.153,0.072l0.153,0.073l0.153,0.074l0.152,0.075l0.152,0.076l0.151,0.078l0.151,0.077l0.149,0.078l0.15,0.08l0.15,0.081l0.148,0.081l0.147,0.082l0.148,0.083l0.147,0.084l0.146,0.084l0.145,0.086l0.146,0.087l0.144,0.087l0.144,0.088l0.144,0.089l0.142,0.089l0.142,0.091l0.141,0.091l0.142,0.093l0.141,0.093l0.139,0.094l0.139,0.094l0.139,0.096l0.138,0.096l0.137,0.097l0.137,0.098l0.136,0.099l0.135,0.099l0.136,0.101l0.134,0.101l0.133,0.101l0.134,0.103l0.131,0.103l0.132,0.104l0.132,0.106l0.129,0.105l0.13,0.107l0.129,0.107l0.129,0.108l0.128,0.109l0.127,0.109l0.126,0.11l0.126,0.111l0.125,0.112l0.124,0.112l0.124,0.113l0.123,0.114l0.122,0.115l0.122,0.115l0.122,0.117l0.12,0.116l0.119,0.118l0.118,0.117l0.119,0.119l0.118,0.121l0.117,0.12l0.115,0.12l0.115,0.121l0.116,0.123l0.113,0.124l0.114,0.123l0.112,0.125l0.111,0.124l0.111,0.126l0.111,0.127l0.11,0.127l0.108,0.128l0.108,0.128l0.107,0.129l0.107,0.13l0.105,0.13l0.106,0.132l0.103,0.131l0.104,0.133l0.102,0.133l0.102,0.133l0.101,0.134l0.101,0.135l0.099,0.136l0.099,0.136l0.098,0.137l0.097,0.137l0.096,0.138l0.095,0.139l0.095,0.139l0.094,0.139l0.093,0.141l0.092,0.141l0.092,0.141l0.09,0.143l0.09,0.142l0.089,0.144l0.088,0.144l0.087,0.144l0.086,0.145l0.086,0.146l0.085,0.147l0.084,0.146l0.083,0.147l0.082,0.148l0.081,0.149l0.081,0.149l0.078,0.148l0.08,0.151l0.078,0.152l0.076,0.149l0.076,0.153l0.075,0.151l0.074,0.153l0.074,0.155l0.073,0.154l0.071,0.153l0.071,0.155l0.069,0.155l0.069,0.155l0.068,0.157l0.067,0.157l0.066,0.157l0.065,0.159l0.064,0.157l0.064,0.16l0.062,0.159l0.061,0.159l0.06,0.16l0.06,0.162l0.059,0.161l0.057,0.161l0.056,0.162l0.056,0.162l0.055,0.163l0.053,0.164l0.053,0.164l0.052,0.163l0.05,0.166l0.05,0.166l0.049,0.165l0.048,0.165l0.046,0.167l0.046,0.167l0.045,0.166l0.044,0.169l0.042,0.168l0.042,0.168l0.041,0.17l0.039,0.168l0.039,0.17l0.038,0.17l0.036,0.171l0.036,0.17l0.034,0.171l0.034,0.172l0.032,0.172l0.031,0.171l0.031,0.172l0.029,0.174l0.028,0.174l0.027,0.173l0.026,0.174l0.025,0.174l0.024,0.174l0.023,0.174l0.022,0.176l0.02,0.175l0.02,0.176l0.018,0.177l0.018,0.176l0.016,0.178l0.015,0.176l0.014,0.176l0.013,0.178l0.012,0.179l0.011,0.176l0.009,0.178l0.009,0.181l0.007,0.178l0.006,0.178l0.006,0.18l0.004,0.18l0.002,0.178l0.002,0.181l0.001,0.18l-0.001,0.18l-0.002,0.181l-0.002,0.178l-0.004,0.18l-0.006,0.181l-0.006,0.178l-0.007,0.177l-0.009,0.181l-0.009,0.179l-0.011,0.176l-0.012,0.178l-0.013,0.178l-0.014,0.176l-0.015,0.177l-0.016,0.177l-0.018,0.177l-0.018,0.176l-0.02,0.176l-0.02,0.176l-0.022,0.175l-0.023,0.174l-0.024,0.174l-0.025,0.175l-0.026,0.173l-0.027,0.173l-0.028,0.174l-0.029,0.174l-0.031,0.173l-0.031,0.17l-0.032,0.172l-0.034,0.172l-0.034,0.171l-0.036,0.17l-0.036,0.171l-0.038,0.171l-0.039,0.169l-0.039,0.168l-0.041,0.17l-0.042,0.168l-0.042,0.168l-0.044,0.169l-0.045,0.166l-0.046,0.167l-0.046,0.167l-0.048,0.165l-0.049,0.166l-0.05,0.165l-0.05,0.166l-0.052,0.164l-0.053,0.163l-0.054,0.164l-0.054,0.163l-0.056,0.162l-0.056,0.162l-0.057,0.161l-0.059,0.161l-0.06,0.162l-0.06,0.161l-0.061,0.159l-0.062,0.158l-0.064,0.16l-0.064,0.158l-0.065,0.158l-0.066,0.157l-0.067,0.157l-0.068,0.157l-0.069,0.155l-0.069,0.155l-0.071,0.155l-0.071,0.154l-0.073,0.154l-0.074,0.155l-0.074,0.152l-0.075,0.151l-0.076,0.153l-0.076,0.15l-0.078,0.151l-0.08,0.151l-0.078,0.148l-0.081,0.15l-0.081,0.148l-0.082,0.148l-0.083,0.148l-0.084,0.146l-0.085,0.146l-0.086,0.147l-0.086,0.144l-0.087,0.144l-0.088,0.144l-0.089,0.144l-0.09,0.143l-0.09,0.142l-0.092,0.141l-0.092,0.142l-0.093,0.14l-0.094,0.139l-0.095,0.14l-0.096,0.139l-0.096,0.137l-0.096,0.137l-0.098,0.138l-0.099,0.135l-0.099,0.136l-0.101,0.135l-0.101,0.135l-0.101,0.132l-0.103,0.133l-0.104,0.133l-0.103,0.131l-0.106,0.132l-0.105,0.13l-0.106,0.129l-0.108,0.13l-0.108,0.129l-0.108,0.127l-0.11,0.127l-0.111,0.127l-0.111,0.126l-0.111,0.124l-0.112,0.125l-0.114,0.124l-0.113,0.123l-0.116,0.123l-0.115,0.121l-0.115,0.121l-0.117,0.12l-0.118,0.12l-0.119,0.119l-0.118,0.118l-0.119,0.117l-0.121,0.117l-0.12,0.116l-0.122,0.115l-0.123,0.115l-0.123,0.114l-0.123,0.113l-0.125,0.112l-0.125,0.112l-0.126,0.112l-0.126,0.109l-0.127,0.109l-0.128,0.11l-0.129,0.108l-0.129,0.107l-0.13,0.106l-0.13,0.106l-0.131,0.105l-0.132,0.104l-0.131,0.103l-0.134,0.103l-0.133,0.102l-0.134,0.1l-0.136,0.101l-0.135,0.1l-0.136,0.098l-0.137,0.098l-0.137,0.097l-0.138,0.097l-0.139,0.095l-0.139,0.094l-0.139,0.094l-0.141,0.094l-0.141,0.092l-0.142,0.091l-0.142,0.091l-0.143,0.089l-0.143,0.09l-0.144,0.087l-0.144,0.087l-0.146,0.087l-0.145,0.086l-0.146,0.084l-0.147,0.084l-0.148,0.083l-0.147,0.082l-0.149,0.082l-0.149,0.08l-0.149,0.08l-0.15,0.078l-0.151,0.078l-0.151,0.077l-0.151,0.076l-0.153,0.075l-0.153,0.074l-0.153,0.074l-0.153,0.072l-0.155,0.071l-0.155,0.071l-0.155,0.07l-0.157,0.069l-0.156,0.067l-0.156,0.067l-0.158,0.067l-0.158,0.065l-0.158,0.064l-0.158,0.063l-0.16,0.062l-0.16,0.062l-0.16,0.06l-0.161,0.059l-0.161,0.059l-0.161,0.057l-0.163,0.057l-0.162,0.056l-0.163,0.054l-0.164,0.054l-0.163,0.052l-0.164,0.052l-0.165,0.051l-0.165,0.05l-0.166,0.049l-0.166,0.047l-0.167,0.047l-0.166,0.046l-0.167,0.044l-0.168,0.044l-0.168,0.043l-0.168,0.042l-0.17,0.04l-0.169,0.04l-0.169,0.039l-0.17,0.037l-0.171,0.037l-0.171,0.035l-0.17,0.035l-0.172,0.033l-0.171,0.033l-0.172,0.031l-0.174,0.03l-0.172,0.03l-0.173,0.028l-0.174,0.027l-0.174,0.026l-0.174,0.025l-0.175,0.024l-0.175,0.023l-0.174,0.021l-0.176,0.021l-0.176,0.019l-0.176,0.019l-0.177,0.017l-0.176,0.017l-0.176,0.015l-0.178,0.014l-0.177,0.013l-0.178,0.012l-0.178,0.01l-0.178,0.01l-0.179,0.008l-0.179,0.008l-0.179,0.006l-0.179,0.005l-0.179,0.004l-0.181,0.003l-0.18,0.002l-0.179,0l-0.18,0l-0.18,-0.002l-0.18,-0.003l-0.18,-0.004l-0.179,-0.005l-0.179,-0.006l-0.179,-0.008l-0.178,-0.008l-0.179,-0.01l-0.178,-0.01l-0.177,-0.012l-0.177,-0.013l-0.179,-0.014l-0.176,-0.015l-0.176,-0.017l-0.177,-0.017l-0.176,-0.019l-0.176,-0.019l-0.176,-0.021l-0.174,-0.021l-0.174,-0.023l-0.176,-0.024l-0.174,-0.025l-0.174,-0.026l-0.174,-0.027l-0.173,-0.029l-0.172,-0.029l-0.173,-0.03l-0.172,-0.031l-0.172,-0.033l-0.171,-0.033l-0.171,-0.035l-0.171,-0.035l-0.171,-0.037l-0.169,-0.037l-0.17,-0.039l-0.17,-0.04l-0.169,-0.04l-0.168,-0.042l-0.168,-0.043l-0.168,-0.044l-0.166,-0.044l-0.167,-0.046l-0.167,-0.047l-0.166,-0.047l-0.166,-0.049l-0.165,-0.05l-0.164,-0.051l-0.165,-0.051l-0.164,-0.053l-0.163,-0.054l-0.163,-0.054l-0.162,-0.056l-0.162,-0.056l-0.162,-0.058l-0.162,-0.059l-0.16,-0.059l-0.16,-0.06l-0.16,-0.062l-0.159,-0.062l-0.159,-0.063l-0.158,-0.064l-0.158,-0.066l-0.157,-0.066l-0.157,-0.066l-0.156,-0.068l-0.157,-0.069l-0.155,-0.07l-0.155,-0.071l-0.154,-0.071l-0.154,-0.073l-0.153,-0.073l-0.152,-0.074l-0.154,-0.075l-0.151,-0.076l-0.15,-0.077l-0.152,-0.078l-0.15,-0.079l-0.149,-0.079l-0.149,-0.08l-0.148,-0.082l-0.148,-0.082l-0.148,-0.083l-0.147,-0.084l-0.145,-0.084l-0.146,-0.086l-0.145,-0.086l-0.145,-0.088l-0.144,-0.087l-0.143,-0.089l-0.143,-0.091l-0.142,-0.09l-0.142,-0.091l-0.141,-0.093l-0.14,-0.092l-0.14,-0.095l-0.139,-0.094l-0.138,-0.095l-0.138,-0.097l-0.138,-0.097l-0.137,-0.098l-0.136,-0.098l-0.135,-0.1l-0.135,-0.1l-0.135,-0.101l-0.134,-0.103l-0.132,-0.102l-0.132,-0.103l-0.132,-0.104l-0.13,-0.105l-0.132,-0.106l-0.13,-0.107l-0.128,-0.106l-0.129,-0.108l-0.127,-0.109l-0.127,-0.109l-0.127,-0.111l-0.126,-0.111l-0.125,-0.111l-0.125,-0.113l-0.123,-0.113l-0.124,-0.114l-0.122,-0.115l-0.121,-0.114l-0.121,-0.117l-0.121,-0.117l-0.119,-0.117l-0.119,-0.118l-0.119,-0.12l-0.116,-0.119l-0.117,-0.119l-0.116,-0.122l-0.116,-0.122l-0.115,-0.123l-0.113,-0.122l-0.113,-0.123l-0.112,-0.125l-0.113,-0.126l-0.111,-0.125l-0.11,-0.127l-0.109,-0.127l-0.108,-0.127l-0.108,-0.129l-0.108,-0.13l-0.107,-0.129l-0.105,-0.131l-0.105,-0.13l-0.104,-0.132l-0.104,-0.133l-0.102,-0.132l-0.102,-0.134l-0.101,-0.134l-0.1,-0.134l-0.1,-0.137l-0.099,-0.136l-0.097,-0.136l-0.097,-0.137l-0.097,-0.139l-0.095,-0.138l-0.095,-0.139l-0.094,-0.141l-0.093,-0.14l-0.092,-0.141l-0.092,-0.141l-0.09,-0.142l-0.09,-0.143l-0.088,-0.143l-0.088,-0.144l-0.088,-0.145l-0.087,-0.145l-0.085,-0.146l-0.084,-0.145l-0.085,-0.148l-0.083,-0.148l-0.081,-0.146l-0.081,-0.148l-0.081,-0.151l-0.08,-0.149l-0.079,-0.15l-0.077,-0.15l-0.077,-0.152l-0.076,-0.152l-0.075,-0.151l-0.075,-0.153l-0.073,-0.153l-0.072,-0.154l-0.072,-0.155l-0.07,-0.155l-0.07,-0.155l-0.069,-0.156l-0.068,-0.156l-0.067,-0.157l-0.066,-0.157l-0.065,-0.158l-0.064,-0.158l-0.063,-0.158l-0.063,-0.162l-0.061,-0.158l-0.06,-0.16l-0.06,-0.161l-0.058,-0.161l-0.058,-0.162l-0.056,-0.162l-0.056,-0.163l-0.055,-0.163l-0.053,-0.162l-0.053,-0.164l-0.052,-0.166l-0.05,-0.164l-0.05,-0.165l-0.049,-0.165l-0.048,-0.166l-0.046,-0.167l-0.046,-0.165l-0.045,-0.169l-0.044,-0.168l-0.042,-0.168l-0.042,-0.168l-0.041,-0.17l-0.039,-0.168l-0.039,-0.169l-0.038,-0.171l-0.036,-0.169l-0.036,-0.172l-0.034,-0.171l-0.034,-0.172l-0.032,-0.172l-0.031,-0.172l-0.031,-0.172l-0.029,-0.173l-0.028,-0.173l-0.027,-0.174l-0.026,-0.173l-0.025,-0.174l-0.024,-0.175l-0.023,-0.175l-0.022,-0.176l-0.02,-0.174l-0.02,-0.176l-0.018,-0.176l-0.018,-0.177l-0.016,-0.176l-0.015,-0.177l-0.014,-0.178l-0.013,-0.177l-0.012,-0.177l-0.011,-0.179l-0.009,-0.179l-0.009,-0.177l-0.007,-0.179l-0.006,-0.18l-0.005,-0.178l-0.004,-0.179l-0.003,-0.181l-0.002,-0.18l-0.001,-0.18l0.001,-0.18l0.002,-0.18l0.003,-0.181l0.004,-0.179l0.005,-0.178l0.006,-0.179l0.007,-0.18l0.009,-0.177l0.009,-0.179l0.011,-0.179l0.012,-0.177l0.013,-0.177l0.014,-0.178l0.015,-0.177l0.016,-0.176l0.018,-0.176l0.018,-0.177l0.02,-0.176l0.02,-0.174l0.022,-0.175l0.023,-0.176l0.024,-0.175l0.025,-0.173l0.026,-0.174l0.027,-0.174l0.028,-0.173l0.029,-0.173l0.031,-0.172l0.031,-0.172l0.032,-0.172l0.034,-0.172l0.034,-0.171l0.036,-0.171l0.036,-0.17l0.038,-0.17l0.039,-0.17l0.039,-0.168l0.041,-0.17l0.042,-0.168l0.042,-0.168l0.044,-0.168l0.045,-0.168l0.046,-0.166l0.047,-0.167l0.047,-0.166l0.049,-0.164l0.05,-0.166l0.05,-0.164l0.052,-0.165l0.053,-0.165l0.053,-0.162l0.055,-0.162l0.056,-0.164l0.056,-0.162l0.058,-0.162l0.058,-0.161l0.06,-0.161l0.06,-0.159l0.061,-0.159l0.063,-0.161l0.063,-0.159l0.064,-0.157l0.065,-0.159l0.066,-0.157l0.067,-0.157l0.068,-0.156l0.069,-0.156l0.07,-0.155l0.07,-0.155l0.072,-0.155l0.072,-0.154l0.073,-0.152l0.075,-0.154l0.075,-0.151l0.076,-0.152l0.077,-0.151l0.077,-0.151l0.079,-0.15l0.08,-0.149l0.081,-0.15l0.081,-0.149l0.081,-0.146l0.083,-0.147l0.085,-0.148l0.084,-0.146l0.085,-0.145l0.087,-0.146l0.088,-0.145l0.088,-0.144l0.088,-0.143l0.09,-0.142l0.091,-0.143l0.091,-0.141l0.092,-0.14l0.093,-0.141l0.095,-0.141l0.094,-0.138l0.095,-0.138l0.097,-0.14l0.097,-0.137l0.097,-0.135l0.099,-0.137l0.1,-0.137l0.099,-0.133l0.102,-0.134l0.102,-0.135l0.103,-0.132l0.103,-0.133l0.104,-0.132l0.105,-0.13l0.105,-0.131l0.107,-0.13l0.108,-0.129l0.108,-0.129l0.108,-0.127l0.109,-0.127l0.11,-0.126l0.111,-0.126l0.113,-0.126l0.112,-0.124l0.113,-0.123l0.113,-0.123l0.115,-0.123l0.116,-0.122l0.116,-0.121l0.117,-0.12l0.116,-0.119l0.119,-0.119l0.119,-0.119l0.119,-0.117l0.12,-0.116l0.123,-0.118l0.121,-0.114l0.121,-0.114l0.124,-0.114l0.124,-0.114l0.124,-0.113l0.125,-0.111l0.126,-0.111l0.127,-0.11l0.127,-0.11l0.127,-0.108l0.129,-0.108l0.128,-0.107l0.13,-0.106l0.131,-0.107l0.131,-0.105l0.132,-0.104l0.132,-0.103l0.133,-0.102l0.133,-0.102l0.135,-0.102l0.135,-0.1l0.135,-0.099l0.136,-0.099l0.137,-0.098l0.138,-0.097l0.137,-0.096l0.139,-0.095l0.139,-0.095l0.14,-0.094l0.14,-0.093l0.142,-0.093l0.141,-0.091l0.142,-0.09l0.143,-0.09l0.143,-0.089l0.144,-0.088l0.145,-0.087l0.145,-0.087l0.146,-0.086l0.145,-0.084l0.148,-0.084l0.147,-0.083l0.148,-0.082l0.147,-0.081l0.15,-0.081l0.15,-0.079l0.149,-0.079l0.151,-0.078l0.151,-0.076l0.152,-0.077l0.153,-0.075l0.152,-0.074l0.153,-0.073l0.154,-0.073l0.154,-0.071l0.155,-0.071l0.155,-0.069l0.157,-0.069l0.156,-0.068l0.157,-0.067l0.157,-0.066l0.158,-0.065l0.158,-0.064l0.159,-0.064l0.159,-0.062l0.16,-0.061l0.16,-0.061l0.16,-0.059l0.162,-0.059l0.161,-0.057l0.163,-0.057l0.163,-0.055l0.162,-0.055l0.163,-0.054l0.164,-0.052l0.165,-0.052l0.164,-0.051l0.165,-0.049l0.166,-0.049l0.166,-0.048l0.166,-0.047l0.168,-0.046l0.167,-0.044l0.167,-0.044l0.168,-0.043l0.169,-0.041l0.168,-0.041l0.17,-0.04l0.17,-0.038l0.169,-0.038l0.171,-0.037l0.171,-0.035l0.171,-0.035l0.171,-0.033l0.172,-0.032l0.172,-0.032l0.173,-0.03l0.172,-0.029l0.173,-0.028l0.174,-0.028l0.174,-0.026l0.174,-0.025l0.175,-0.023l0.174,-0.023l0.176,-0.022l0.176,-0.021l0.175,-0.019l0.176,-0.019l0.176,-0.017l0.177,-0.016l0.177,-0.015l0.177,-0.015l0.178,-0.012l0.177,-0.012l0.178,-0.011l0.179,-0.01l0.178,-0.008l0.179,-0.008l0.179,-0.006l0.179,-0.005l0.18,-0.004l0.18,-0.003l0.179,-0.001l0.181,-0.001l0.18,0.001Zm-0.326,5.499l-0.145,0.002l-0.145,0.002l-0.144,0.003l-0.145,0.004l-0.144,0.006l-0.144,0.005l-0.144,0.007l-0.143,0.008l-0.143,0.009l-0.143,0.009l-0.143,0.011l-0.143,0.011l-0.142,0.012l-0.142,0.013l-0.142,0.014l-0.141,0.015l-0.141,0.016l-0.141,0.016l-0.141,0.018l-0.14,0.018l-0.141,0.019l-0.14,0.02l-0.139,0.021l-0.139,0.022l-0.14,0.023l-0.138,0.023l-0.139,0.024l-0.138,0.026l-0.138,0.026l-0.137,0.026l-0.138,0.028l-0.137,0.029l-0.136,0.029l-0.137,0.03l-0.136,0.031l-0.136,0.032l-0.135,0.033l-0.135,0.033l-0.135,0.034l-0.135,0.035l-0.134,0.036l-0.133,0.037l-0.134,0.037l-0.133,0.039l-0.133,0.039l-0.132,0.04l-0.133,0.04l-0.131,0.042l-0.132,0.042l-0.131,0.043l-0.131,0.044l-0.13,0.045l-0.13,0.045l-0.13,0.046l-0.129,0.047l-0.129,0.048l-0.128,0.048l-0.128,0.049l-0.128,0.05l-0.128,0.051l-0.127,0.052l-0.126,0.052l-0.127,0.053l-0.125,0.054l-0.126,0.054l-0.125,0.055l-0.125,0.056l-0.124,0.057l-0.124,0.057l-0.123,0.058l-0.123,0.059l-0.123,0.06l-0.122,0.06l-0.122,0.061l-0.121,0.062l-0.121,0.062l-0.121,0.064l-0.12,0.063l-0.12,0.065l-0.119,0.065l-0.119,0.066l-0.118,0.067l-0.118,0.067l-0.117,0.068l-0.117,0.069l-0.117,0.07l-0.116,0.07l-0.116,0.07l-0.115,0.072l-0.115,0.072l-0.114,0.073l-0.114,0.073l-0.113,0.074l-0.113,0.075l-0.112,0.076l-0.112,0.076l-0.111,0.076l-0.111,0.078l-0.111,0.078l-0.11,0.079l-0.109,0.079l-0.109,0.08l-0.109,0.081l-0.108,0.081l-0.107,0.082l-0.107,0.082l-0.106,0.083l-0.106,0.084l-0.106,0.085l-0.105,0.085l-0.104,0.085l-0.104,0.087l-0.103,0.086l-0.103,0.088l-0.102,0.088l-0.102,0.089l-0.101,0.089l-0.101,0.09l-0.1,0.09l-0.099,0.091l-0.099,0.092l-0.099,0.092l-0.098,0.093l-0.097,0.093l-0.097,0.094l-0.096,0.095l-0.096,0.095l-0.095,0.095l-0.094,0.097l-0.094,0.096l-0.094,0.098l-0.093,0.098l-0.092,0.098l-0.091,0.099l-0.091,0.1l-0.091,0.1l-0.09,0.1l-0.089,0.102l-0.089,0.101l-0.088,0.103l-0.087,0.102l-0.087,0.104l-0.086,0.104l-0.086,0.104l-0.085,0.105l-0.084,0.105l-0.084,0.106l-0.083,0.107l-0.083,0.106l-0.082,0.108l-0.081,0.108l-0.081,0.108l-0.08,0.109l-0.079,0.11l-0.079,0.11l-0.078,0.11l-0.077,0.111l-0.077,0.111l-0.076,0.112l-0.075,0.113l-0.075,0.113l-0.074,0.113l-0.074,0.114l-0.073,0.114l-0.072,0.115l-0.071,0.115l-0.071,0.116l-0.07,0.116l-0.069,0.116l-0.069,0.117l-0.068,0.118l-0.068,0.118l-0.066,0.118l-0.066,0.119l-0.066,0.119l-0.064,0.12l-0.064,0.12l-0.063,0.12l-0.063,0.121l-0.061,0.122l-0.061,0.121l-0.061,0.123l-0.059,0.122l-0.059,0.123l-0.058,0.124l-0.058,0.124l-0.056,0.124l-0.056,0.125l-0.055,0.125l-0.055,0.125l-0.054,0.126l-0.053,0.126l-0.052,0.127l-0.051,0.127l-0.051,0.127l-0.05,0.128l-0.049,0.128l-0.049,0.129l-0.047,0.129l-0.047,0.129l-0.047,0.13l-0.045,0.13l-0.045,0.13l-0.043,0.131l-0.043,0.131l-0.043,0.131l-0.041,0.132l-0.041,0.132l-0.04,0.133l-0.039,0.132l-0.038,0.134l-0.038,0.133l-0.036,0.134l-0.036,0.134l-0.035,0.135l-0.035,0.134l-0.033,0.135l-0.033,0.136l-0.031,0.136l-0.031,0.136l-0.031,0.136l-0.029,0.137l-0.028,0.137l-0.028,0.137l-0.027,0.138l-0.026,0.138l-0.025,0.138l-0.024,0.138l-0.024,0.139l-0.023,0.139l-0.021,0.139l-0.021,0.14l-0.02,0.14l-0.019,0.14l-0.019,0.141l-0.017,0.14l-0.017,0.141l-0.016,0.141l-0.014,0.142l-0.014,0.142l-0.013,0.142l-0.013,0.142l-0.011,0.142l-0.01,0.143l-0.01,0.143l-0.009,0.144l-0.007,0.143l-0.007,0.144l-0.006,0.144l-0.005,0.144l-0.004,0.144l-0.003,0.145l-0.003,0.145l-0.001,0.145l-0.001,0.145l0.001,0.145l0.001,0.146l0.003,0.144l0.003,0.145l0.004,0.144l0.005,0.145l0.006,0.144l0.007,0.143l0.007,0.144l0.009,0.143l0.01,0.143l0.01,0.143l0.011,0.142l0.013,0.143l0.013,0.142l0.014,0.141l0.014,0.142l0.016,0.141l0.017,0.141l0.017,0.141l0.019,0.14l0.019,0.14l0.02,0.14l0.021,0.14l0.021,0.139l0.023,0.139l0.024,0.139l0.024,0.139l0.025,0.138l0.026,0.138l0.027,0.137l0.028,0.137l0.028,0.137l0.029,0.137l0.031,0.137l0.031,0.136l0.031,0.135l0.033,0.136l0.033,0.135l0.035,0.135l0.035,0.134l0.036,0.134l0.036,0.134l0.038,0.134l0.038,0.133l0.039,0.133l0.04,0.132l0.041,0.132l0.041,0.132l0.043,0.131l0.043,0.132l0.043,0.13l0.045,0.131l0.045,0.13l0.047,0.129l0.047,0.13l0.047,0.128l0.049,0.129l0.049,0.128l0.05,0.128l0.051,0.127l0.051,0.127l0.052,0.127l0.053,0.126l0.054,0.126l0.055,0.126l0.055,0.125l0.056,0.124l0.056,0.125l0.058,0.124l0.058,0.123l0.059,0.123l0.059,0.123l0.061,0.122l0.061,0.122l0.061,0.121l0.063,0.121l0.063,0.121l0.064,0.12l0.064,0.119l0.066,0.12l0.066,0.118l0.066,0.119l0.068,0.118l0.068,0.117l0.069,0.117l0.069,0.117l0.07,0.116l0.071,0.115l0.071,0.116l0.072,0.114l0.073,0.115l0.074,0.113l0.074,0.114l0.075,0.113l0.075,0.112l0.076,0.112l0.077,0.111l0.077,0.111l0.078,0.111l0.079,0.11l0.079,0.109l0.08,0.109l0.081,0.108l0.081,0.108l0.082,0.108l0.083,0.107l0.083,0.106l0.084,0.106l0.084,0.106l0.085,0.104l0.086,0.105l0.086,0.104l0.087,0.103l0.087,0.103l0.088,0.102l0.089,0.102l0.089,0.101l0.09,0.101l0.091,0.1l0.091,0.099l0.091,0.099l0.092,0.099l0.093,0.098l0.094,0.097l0.094,0.097l0.094,0.096l0.095,0.096l0.096,0.095l0.096,0.094l0.097,0.094l0.097,0.093l0.098,0.093l0.099,0.092l0.099,0.092l0.099,0.091l0.1,0.091l0.101,0.089l0.101,0.09l0.102,0.088l0.102,0.088l0.103,0.088l0.103,0.087l0.104,0.086l0.104,0.086l0.105,0.085l0.106,0.084l0.106,0.084l0.106,0.083l0.107,0.082l0.107,0.082l0.108,0.082l0.109,0.08l0.109,0.08l0.109,0.08l0.11,0.078l0.111,0.078l0.111,0.078l0.111,0.077l0.112,0.076l0.112,0.075l0.113,0.075l0.113,0.074l0.114,0.073l0.114,0.073l0.115,0.072l0.115,0.072l0.116,0.071l0.116,0.07l0.117,0.069l0.117,0.069l0.117,0.068l0.118,0.067l0.118,0.067l0.119,0.066l0.119,0.065l0.12,0.065l0.12,0.064l0.121,0.063l0.121,0.062l0.121,0.062l0.122,0.061l0.122,0.06l0.123,0.06l0.123,0.059l0.123,0.058l0.124,0.057l0.124,0.057l0.125,0.056l0.125,0.055l0.126,0.055l0.125,0.053l0.127,0.053l0.126,0.053l0.127,0.051l0.128,0.051l0.128,0.05l0.128,0.049l0.128,0.048l0.129,0.048l0.129,0.047l0.13,0.046l0.13,0.046l0.13,0.044l0.131,0.044l0.131,0.043l0.132,0.042l0.131,0.042l0.133,0.041l0.132,0.039l0.133,0.04l0.133,0.038l0.134,0.037l0.133,0.037l0.134,0.036l0.135,0.035l0.135,0.034l0.135,0.034l0.135,0.032l0.136,0.032l0.136,0.031l0.137,0.03l0.136,0.03l0.137,0.028l0.138,0.028l0.137,0.027l0.138,0.026l0.138,0.025l0.139,0.024l0.138,0.024l0.14,0.022l0.139,0.022l0.139,0.021l0.14,0.02l0.141,0.019l0.14,0.018l0.141,0.018l0.141,0.017l0.141,0.015l0.141,0.015l0.142,0.014l0.142,0.013l0.142,0.012l0.143,0.012l0.143,0.01l0.143,0.01l0.143,0.008l0.143,0.008l0.144,0.007l0.144,0.006l0.144,0.005l0.145,0.004l0.144,0.003l0.145,0.002l0.145,0.002l0.146,0l0.145,0l0.145,-0.002l0.145,-0.002l0.144,-0.003l0.145,-0.004l0.144,-0.005l0.144,-0.006l0.144,-0.007l0.143,-0.008l0.143,-0.008l0.143,-0.01l0.143,-0.01l0.143,-0.012l0.142,-0.012l0.142,-0.013l0.142,-0.014l0.141,-0.015l0.142,-0.015l0.14,-0.017l0.141,-0.018l0.141,-0.018l0.14,-0.019l0.14,-0.02l0.139,-0.021l0.14,-0.022l0.139,-0.022l0.138,-0.024l0.139,-0.024l0.138,-0.025l0.138,-0.026l0.138,-0.027l0.137,-0.028l0.137,-0.028l0.137,-0.03l0.136,-0.03l0.136,-0.031l0.136,-0.032l0.135,-0.032l0.135,-0.034l0.135,-0.034l0.135,-0.035l0.134,-0.036l0.134,-0.037l0.133,-0.037l0.133,-0.038l0.133,-0.04l0.133,-0.039l0.132,-0.041l0.131,-0.042l0.132,-0.042l0.131,-0.043l0.131,-0.044l0.13,-0.044l0.13,-0.046l0.13,-0.046l0.129,-0.047l0.129,-0.048l0.128,-0.048l0.129,-0.049l0.127,-0.05l0.128,-0.051l0.127,-0.051l0.126,-0.053l0.127,-0.053l0.126,-0.053l0.125,-0.055l0.125,-0.055l0.125,-0.056l0.124,-0.057l0.124,-0.057l0.123,-0.058l0.123,-0.059l0.123,-0.06l0.122,-0.06l0.122,-0.061l0.121,-0.062l0.121,-0.062l0.121,-0.063l0.12,-0.064l0.12,-0.065l0.119,-0.065l0.119,-0.066l0.118,-0.067l0.118,-0.067l0.117,-0.068l0.118,-0.069l0.116,-0.069l0.116,-0.07l0.116,-0.071l0.115,-0.072l0.115,-0.072l0.114,-0.073l0.114,-0.073l0.113,-0.074l0.113,-0.075l0.112,-0.075l0.112,-0.076l0.112,-0.077l0.111,-0.078l0.11,-0.078l0.11,-0.078l0.109,-0.08l0.109,-0.08l0.109,-0.08l0.108,-0.082l0.107,-0.082l0.107,-0.082l0.107,-0.083l0.106,-0.084l0.105,-0.084l0.105,-0.085l0.104,-0.086l0.104,-0.086l0.103,-0.087l0.103,-0.088l0.102,-0.088l0.102,-0.088l0.101,-0.09l0.101,-0.089l0.1,-0.091l0.1,-0.091l0.099,-0.092l0.098,-0.092l0.098,-0.093l0.097,-0.093l0.097,-0.094l0.096,-0.094l0.096,-0.095l0.095,-0.096l0.095,-0.096l0.094,-0.097l0.093,-0.097l0.093,-0.098l0.092,-0.099l0.092,-0.099l0.091,-0.099l0.09,-0.1l0.09,-0.101l0.089,-0.101l0.089,-0.102l0.088,-0.102l0.087,-0.103l0.087,-0.103l0.086,-0.104l0.086,-0.105l0.085,-0.104l0.084,-0.106l0.084,-0.106l0.083,-0.106l0.083,-0.107l0.082,-0.108l0.081,-0.108l0.081,-0.108l0.08,-0.109l0.079,-0.109l0.079,-0.11l0.078,-0.111l0.077,-0.111l0.077,-0.111l0.076,-0.112l0.076,-0.112l0.074,-0.113l0.074,-0.114l0.074,-0.113l0.073,-0.115l0.072,-0.114l0.071,-0.116l0.071,-0.115l0.07,-0.116l0.07,-0.117l0.068,-0.117l0.068,-0.117l0.068,-0.118l0.066,-0.119l0.066,-0.118l0.066,-0.12l0.064,-0.119l0.064,-0.12l0.063,-0.121l0.063,-0.121l0.061,-0.121l0.062,-0.122l0.06,-0.122l0.059,-0.123l0.059,-0.123l0.058,-0.123l0.058,-0.124l0.057,-0.125l0.055,-0.124l0.056,-0.125l0.054,-0.126l0.054,-0.126l0.053,-0.126l0.052,-0.127l0.052,-0.127l0.05,-0.127l0.05,-0.128l0.049,-0.128l0.049,-0.129l0.048,-0.128l0.047,-0.13l0.046,-0.129l0.045,-0.13l0.045,-0.131l0.044,-0.13l0.043,-0.132l0.042,-0.131l0.041,-0.132l0.041,-0.132l0.04,-0.132l0.039,-0.133l0.038,-0.133l0.038,-0.134l0.036,-0.134l0.036,-0.134l0.035,-0.134l0.035,-0.135l0.033,-0.135l0.033,-0.136l0.032,-0.135l0.031,-0.136l0.03,-0.137l0.029,-0.137l0.029,-0.137l0.027,-0.137l0.027,-0.137l0.026,-0.138l0.025,-0.138l0.025,-0.139l0.023,-0.139l0.023,-0.139l0.021,-0.139l0.021,-0.14l0.02,-0.14l0.02,-0.14l0.018,-0.14l0.017,-0.141l0.017,-0.141l0.016,-0.141l0.015,-0.142l0.014,-0.141l0.013,-0.142l0.012,-0.143l0.011,-0.142l0.011,-0.143l0.009,-0.143l0.009,-0.143l0.007,-0.144l0.007,-0.143l0.006,-0.144l0.005,-0.145l0.004,-0.144l0.004,-0.145l0.002,-0.144l0.001,-0.146l0.001,-0.145l-0.001,-0.145l-0.001,-0.145l-0.002,-0.145l-0.004,-0.145l-0.004,-0.144l-0.005,-0.144l-0.006,-0.144l-0.007,-0.144l-0.007,-0.143l-0.009,-0.144l-0.009,-0.143l-0.011,-0.143l-0.011,-0.142l-0.012,-0.142l-0.013,-0.142l-0.014,-0.142l-0.015,-0.142l-0.016,-0.141l-0.017,-0.141l-0.017,-0.14l-0.018,-0.141l-0.02,-0.14l-0.02,-0.14l-0.021,-0.14l-0.021,-0.139l-0.023,-0.139l-0.023,-0.139l-0.025,-0.138l-0.025,-0.138l-0.026,-0.138l-0.027,-0.138l-0.027,-0.137l-0.029,-0.137l-0.029,-0.137l-0.03,-0.136l-0.031,-0.136l-0.032,-0.136l-0.033,-0.136l-0.033,-0.135l-0.035,-0.134l-0.035,-0.135l-0.036,-0.134l-0.036,-0.134l-0.038,-0.133l-0.038,-0.134l-0.039,-0.132l-0.04,-0.133l-0.041,-0.132l-0.041,-0.132l-0.042,-0.131l-0.043,-0.131l-0.044,-0.131l-0.045,-0.13l-0.045,-0.13l-0.046,-0.13l-0.047,-0.129l-0.048,-0.129l-0.049,-0.129l-0.049,-0.128l-0.05,-0.128l-0.05,-0.127l-0.052,-0.127l-0.052,-0.127l-0.053,-0.126l-0.054,-0.126l-0.054,-0.125l-0.056,-0.125l-0.055,-0.125l-0.057,-0.124l-0.058,-0.124l-0.058,-0.124l-0.059,-0.123l-0.059,-0.122l-0.06,-0.123l-0.062,-0.121l-0.061,-0.122l-0.063,-0.121l-0.063,-0.12l-0.064,-0.12l-0.064,-0.12l-0.066,-0.119l-0.066,-0.119l-0.066,-0.118l-0.068,-0.118l-0.068,-0.118l-0.068,-0.117l-0.07,-0.116l-0.07,-0.116l-0.071,-0.116l-0.071,-0.115l-0.072,-0.115l-0.073,-0.114l-0.074,-0.114l-0.074,-0.113l-0.074,-0.113l-0.076,-0.113l-0.076,-0.112l-0.077,-0.111l-0.077,-0.111l-0.078,-0.11l-0.079,-0.11l-0.079,-0.11l-0.08,-0.109l-0.081,-0.108l-0.081,-0.108l-0.082,-0.108l-0.083,-0.106l-0.083,-0.107l-0.084,-0.106l-0.084,-0.105l-0.085,-0.105l-0.086,-0.104l-0.086,-0.104l-0.087,-0.104l-0.087,-0.102l-0.088,-0.103l-0.089,-0.101l-0.089,-0.102l-0.09,-0.1l-0.09,-0.1l-0.091,-0.1l-0.092,-0.099l-0.092,-0.098l-0.093,-0.098l-0.093,-0.098l-0.094,-0.096l-0.095,-0.097l-0.095,-0.095l-0.096,-0.095l-0.096,-0.095l-0.097,-0.094l-0.097,-0.093l-0.098,-0.093l-0.098,-0.092l-0.099,-0.092l-0.1,-0.091l-0.1,-0.09l-0.101,-0.09l-0.101,-0.089l-0.102,-0.089l-0.102,-0.088l-0.103,-0.088l-0.103,-0.086l-0.104,-0.087l-0.104,-0.085l-0.105,-0.085l-0.105,-0.085l-0.106,-0.084l-0.107,-0.083l-0.107,-0.082l-0.107,-0.082l-0.108,-0.081l-0.109,-0.081l-0.109,-0.08l-0.109,-0.079l-0.11,-0.079l-0.11,-0.078l-0.111,-0.078l-0.112,-0.076l-0.112,-0.076l-0.112,-0.076l-0.113,-0.075l-0.113,-0.074l-0.114,-0.073l-0.114,-0.073l-0.115,-0.072l-0.115,-0.072l-0.116,-0.07l-0.116,-0.07l-0.116,-0.07l-0.118,-0.069l-0.117,-0.068l-0.118,-0.067l-0.118,-0.067l-0.119,-0.066l-0.119,-0.065l-0.12,-0.065l-0.12,-0.063l-0.121,-0.064l-0.121,-0.062l-0.121,-0.062l-0.122,-0.061l-0.122,-0.06l-0.123,-0.06l-0.123,-0.059l-0.123,-0.058l-0.124,-0.057l-0.124,-0.057l-0.125,-0.056l-0.125,-0.055l-0.125,-0.054l-0.126,-0.054l-0.127,-0.053l-0.126,-0.052l-0.127,-0.052l-0.128,-0.051l-0.127,-0.05l-0.129,-0.049l-0.128,-0.048l-0.129,-0.048l-0.129,-0.047l-0.13,-0.046l-0.13,-0.045l-0.13,-0.045l-0.131,-0.044l-0.131,-0.043l-0.132,-0.042l-0.131,-0.042l-0.132,-0.04l-0.133,-0.04l-0.133,-0.039l-0.133,-0.039l-0.133,-0.037l-0.134,-0.037l-0.134,-0.036l-0.135,-0.035l-0.135,-0.034l-0.135,-0.033l-0.135,-0.033l-0.136,-0.032l-0.136,-0.031l-0.136,-0.03l-0.137,-0.029l-0.137,-0.029l-0.137,-0.028l-0.138,-0.026l-0.138,-0.026l-0.138,-0.026l-0.139,-0.024l-0.138,-0.023l-0.139,-0.023l-0.14,-0.022l-0.139,-0.021l-0.14,-0.02l-0.14,-0.019l-0.141,-0.018l-0.141,-0.018l-0.14,-0.016l-0.142,-0.016l-0.141,-0.015l-0.142,-0.014l-0.142,-0.013l-0.142,-0.012l-0.143,-0.011l-0.143,-0.011l-0.143,-0.009l-0.143,-0.009l-0.143,-0.008l-0.144,-0.007l-0.144,-0.005l-0.144,-0.006l-0.145,-0.004l-0.144,-0.003l-0.145,-0.002l-0.145,-0.002l-0.145,0l-0.146,0Z"/><path d="M185.733,179.897c1.443,-1.282 4.193,-0.546 6.138,1.643c1.945,2.189 2.353,5.007 0.91,6.289c-1.442,1.282 -4.193,0.545 -6.138,-1.644c-1.945,-2.189 -2.352,-5.007 -0.91,-6.288Z" style="fill:#e57c5d;"/></g><rect x="0" y="0" width="355.725" height="355.725" style="fill:none;"/></g></svg>